<?xml version="1.0" encoding="UTF-8"?>
<svg width="479px" height="222px" viewBox="0 0 479 222" version="1.1" xmlns="http://www.w3.org/2000/svg" xmlns:xlink="http://www.w3.org/1999/xlink">
    <!-- Generator: Sketch 52.6 (67491) - http://www.bohemiancoding.com/sketch -->
    <title>notify-logo</title>
    <desc>Created with Sketch.</desc>
    <g id="notify-logo" stroke="none" stroke-width="1" fill="none" fill-rule="evenodd">
        <path d="M22.0368396,66.4400053 C13.103825,66.4400053 5.82920659,73.696756 5.82920659,82.6484116 L5.82920659,150.765902 C5.82920659,159.744129 13.085611,166.974308 22.0368396,166.974308 C30.9698541,166.974308 38.2444725,159.717558 38.2444725,150.765902 L38.2444725,103.710649 C40.5012346,102.196279 48.118373,97.4617984 54.9628125,97.5926345 C59.308691,97.4369554 63.8716486,99.5751991 66.2376876,104.169645 C68.383085,108.612836 68.58662,121.081958 68.58662,121.081958 L68.8263555,135.706107 C68.7960329,136.102651 68.7805926,136.503135 68.7805926,136.906992 L68.58662,151.710213 C68.58662,160.269739 75.9563945,167.209202 84.5184391,167.209202 C93.0823664,167.209202 99.5925265,160.272876 99.5925265,151.710213 L99.7864992,136.439308 C99.7864992,135.6021 99.7201857,134.781437 99.5925265,133.982202 L99.5925265,97.0179413 C99.5925265,84.0829778 84.6709126,68.1828807 68.58662,66.9516076 C50.3196907,66.2888832 40.3754675,73.6790756 37.1141578,76.6787882 C34.7398931,70.6709453 28.884253,66.4400053 22.0368396,66.4400053 Z M425.957028,118.199277 L410.194304,77.1359774 C406.972839,68.7437741 397.599663,64.574291 389.242972,67.7821244 C380.903284,70.9834305 376.717637,80.378746 379.932046,88.7525698 L408.596303,163.425511 L395.334486,197.973726 C392.124721,206.33545 396.314134,215.720956 404.653821,218.922262 C413.010513,222.130096 422.395046,217.931026 425.596744,209.590319 L472.090721,88.4693661 C475.300486,80.1076425 471.111073,70.7221362 462.771386,67.5208301 C454.414694,64.3129966 445.030161,68.5120659 441.828463,76.8527737 L425.957028,118.199277 L425.957028,118.199277 Z M324.601921,51.0616076 C324.601921,27.4945658 338.342204,24.2583277 352.225288,23.7276237 C366.108372,23.1969197 369.325226,28.3733149 369.325226,28.3733149 C372.961635,29.7520427 377.849342,48.3179137 366.416934,48.3179137 C357.806021,48.3179137 356.609418,57.2386548 356.543263,61.6418955 C356.600941,62.1969476 356.630502,62.760138 356.630502,63.3299961 L356.630502,68.3191511 L357.42671,68.3191511 C364.699303,68.3191511 370.594904,74.2233349 370.594904,81.4734965 C370.594904,88.7384409 364.698989,94.6278419 357.42671,94.6278419 L356.630502,94.6278419 L356.630502,148.87556 C356.630502,157.833399 349.355884,165.095163 340.42287,165.095163 C331.471641,165.095163 324.215237,157.803725 324.215237,148.87556 L324.215237,94.6278419 L323.419029,94.6278419 C316.146436,94.6278419 310.250835,88.7236582 310.250835,81.4734965 C310.250835,74.2085522 316.14675,68.3191511 323.419029,68.3191511 L324.215237,68.3191511 L324.215237,63.3299961 C324.215237,62.2277423 324.325382,61.1511688 324.53521,60.1106452 C324.495899,57.5652646 324.601921,54.5465075 324.601921,51.0616076 Z M217.020821,138.662565 C217.020821,162.229607 230.761104,165.465845 244.644188,165.996549 C258.527272,166.527253 261.744126,161.350858 261.744126,161.350858 C265.380535,159.97213 270.268242,141.406259 258.835834,141.406259 C250.224921,141.406259 249.028318,132.485518 248.962163,128.082277 C249.019841,127.527225 249.049402,126.964035 249.049402,126.394176 L249.049402,92.7480472 L249.84561,92.7480472 C257.118203,92.7480472 263.013804,86.8438635 263.013804,79.5937018 C263.013804,72.3287574 257.117889,66.4393564 249.84561,66.4393564 L249.049402,66.4393564 L249.049402,40.8486125 C249.049402,31.8907734 241.774784,24.6290101 232.841769,24.6290101 C223.890541,24.6290101 216.634137,31.9204474 216.634137,40.8486125 L216.634137,66.4393564 L215.837929,66.4393564 C208.565336,66.4393564 202.669735,72.3435401 202.669735,79.5937018 C202.669735,86.8586462 208.56565,92.7480472 215.837929,92.7480472 L216.634137,92.7480472 L216.634137,126.394176 C216.634137,127.49643 216.744282,128.573004 216.95411,129.613527 C216.914799,132.158908 217.020821,135.177665 217.020821,138.662565 Z M202.669735,116.707157 C202.669735,144.468938 180.164364,166.974308 152.402583,166.974308 C124.640802,166.974308 102.135432,144.468938 102.135432,116.707157 C102.135432,88.9453756 124.640802,66.4400053 152.402583,66.4400053 C180.164364,66.4400053 202.669735,88.9453756 202.669735,116.707157 Z M152.402583,136.907975 C163.559187,136.907975 172.603401,127.86376 172.603401,116.707157 C172.603401,105.550553 163.559187,96.5063389 152.402583,96.5063389 C141.245979,96.5063389 132.201765,105.550553 132.201765,116.707157 C132.201765,127.86376 141.245979,136.907975 152.402583,136.907975 Z M287.466191,56.1047031 C296.41742,56.1047031 303.673824,48.8482986 303.673824,39.8970701 C303.673824,30.9458416 296.41742,23.6894371 287.466191,23.6894371 C278.514963,23.6894371 271.258558,30.9458416 271.258558,39.8970701 C271.258558,48.8482986 278.514963,56.1047031 287.466191,56.1047031 L287.466191,56.1047031 Z M271.258558,82.6484116 C271.258558,73.696756 278.533177,66.4400053 287.466191,66.4400053 C296.41742,66.4400053 303.673824,73.6701844 303.673824,82.6484116 L303.673824,150.765902 C303.673824,159.717558 296.399206,166.974308 287.466191,166.974308 C278.514963,166.974308 271.258558,159.744129 271.258558,150.765902 L271.258558,82.6484116 L271.258558,82.6484116 Z" id="Combined-Shape-Copy" fill="#000000"></path>
    </g>
</svg>