<?xml version="1.0" encoding="UTF-8"?>
<!DOCTYPE svg PUBLIC "-//W3C//DTD SVG 1.1//EN" "http://www.w3.org/Graphics/SVG/1.1/DTD/svg11.dtd">
<!-- Creator: CorelDRAW X8 -->
<svg xmlns="http://www.w3.org/2000/svg" xml:space="preserve" width="25.7298mm" height="24.5553mm" version="1.1" style="shape-rendering:geometricPrecision; text-rendering:geometricPrecision; image-rendering:optimizeQuality; fill-rule:evenodd; clip-rule:evenodd"
viewBox="0 0 928 886"
 xmlns:xlink="http://www.w3.org/1999/xlink">
 <defs>
  <style type="text/css">
   <![CDATA[
    .fil0 {fill:#AAACAE}
    .fil3 {fill:#F06429}
    .fil4 {fill:#F5921D}
    .fil1 {fill:#FEBA36}
    .fil2 {fill:white}
   ]]>
  </style>
 </defs>
 <g id="Layer_x0020_1">
  <metadata id="CorelCorpID_0Corel-Layer"/>
  <path class="fil0" d="M418 35l-356 126c-9,-6 -9,-15 -28,-17 -33,-3 -40,34 -27,51 9,12 21,10 38,10l83 143c-12,13 -24,25 -36,38 -10,11 -32,32 -38,42 -28,-8 -51,-8 -53,24 -2,36 26,33 53,26 12,18 62,58 74,78 -5,19 -71,113 -80,141 -95,-8 -26,105 10,44l361 114 0 30 61 1 1 -31c33,-25 266,-172 318,-204 10,-7 55,-40 65,-38 1,0 7,2 16,3 14,1 32,0 46,0l2 -62 -54 0 -81 -111 52 -70c34,-43 14,-40 83,-39l-1 -62c-15,0 -29,-1 -44,0 -12,0 -10,1 -17,3 -12,2 -48,-27 -70,-41 -37,-23 -75,-47 -112,-71 -46,-31 -155,-97 -195,-126 -13,-9 -8,-18 -9,-37l-61 0 -1 35z"/>
  <path class="fil1" d="M319 263l-26 14 -94 55 -1 3 73 42c19,-4 44,-22 60,-32 18,-10 37,-20 57,-32 35,-22 76,-43 113,-64 20,7 57,31 78,44 25,14 51,30 74,43 14,-6 26,-14 39,-21 10,-7 25,-20 38,-19 -6,-12 -13,-13 -25,-19 -10,-6 -17,-10 -27,-16 -17,-10 -36,-21 -51,-30l-14 -9c-14,-5 -24,-12 -38,-20 -84,-49 -65,-47 -111,-21 -26,15 -47,27 -72,42 -24,13 -49,29 -73,40z"/>
  <path class="fil2" d="M503 593l0 1 -1 87c-11,9 -62,38 -76,44 -24,-11 -56,-31 -76,-44l0 -66 -44 16c4,15 66,116 83,145 9,15 21,32 27,48l61 0 5 14 48 -62c16,-22 31,-40 47,-63l94 -125 -151 -2 -17 7z"/>
  <path class="fil3" d="M349 422l1 129 -1 6 1 53 0 5 0 66c20,13 52,33 76,44l1 -172c11,1 60,34 76,41l0 -1 -1 -85c-12,-7 -23,-12 -36,-20 -15,-8 -22,-14 -38,-20 -3,-8 -2,-34 -2,-44 0,-14 2,-30 -2,-44 -21,11 -53,33 -75,42z"/>
  <path class="fil4" d="M271 377c7,19 2,62 2,84l16 -5c19,-11 40,-23 60,-34 22,-9 54,-31 75,-42 4,14 2,30 2,44 0,10 -1,36 2,44 3,-12 16,-15 34,-26 9,-6 30,-18 40,-21 0,-22 -5,-69 2,-85 -7,-19 0,-62 -3,-87 -37,21 -78,42 -113,64 -20,12 -39,22 -57,32 -16,10 -41,28 -60,32z"/>
  <path class="fil2" d="M489 841l357 -228c12,-8 19,-7 19,-21l-180 -4c-9,2 -45,55 -51,63l-122 159c-8,10 -16,22 -23,31z"/>
  <path class="fil2" d="M62 168c1,17 -1,14 17,19l90 29c18,6 40,14 58,19 15,4 26,-13 42,-31l77 -79c12,-13 70,-69 73,-82l-357 125z"/>
  <path class="fil2" d="M62 733c8,5 326,108 355,114 -16,-24 -161,-159 -183,-188 -21,3 -124,44 -159,56 -15,6 -12,2 -13,18z"/>
  <path class="fil2" d="M627 231c15,9 34,20 51,30 10,6 17,10 27,16 12,6 19,7 25,19l0 5c12,0 125,3 136,-5 -1,-14 -7,-14 -18,-20 -76,-45 -182,-121 -261,-168 -33,-20 -63,-41 -97,-62 5,9 9,14 16,23l86 113c9,12 29,36 35,49z"/>
  <path class="fil2" d="M319 263c24,-11 49,-27 73,-40 25,-15 46,-27 72,-42 46,-26 27,-28 111,21 14,8 24,15 38,20l-113 -151c-6,-8 -12,-14 -16,-23l-6 11c0,1 0,2 -1,3l-50 0c-8,10 -22,36 -29,48l-58 100c-11,17 -18,34 -30,49 5,5 -2,2 9,4z"/>
  <path class="fil2" d="M578 513l0 37 -45 27c10,4 130,6 146,3l66 -86c-6,-7 -55,-40 -66,-45 -28,14 -77,56 -101,64z"/>
  <path class="fil3" d="M504 336c20,11 41,22 61,35 15,10 46,26 57,35l28 13c3,-1 4,2 4,-19l-1 -64c-23,-13 -49,-29 -74,-43 -21,-13 -58,-37 -78,-44 3,25 -4,68 3,87z"/>
  <path class="fil2" d="M502 421l74 42c4,10 2,29 2,43 7,-3 90,-58 93,-62 -15,-15 -37,-21 -49,-38 -11,-9 -42,-25 -57,-35 -20,-13 -41,-24 -61,-35 -7,16 -2,63 -2,85z"/>
  <path class="fil4" d="M426 725c14,-6 65,-35 76,-44l1 -87c-16,-7 -65,-40 -76,-41l-1 172z"/>
  <path class="fil2" d="M687 581l179 4c-1,-18 3,-10 -24,-28l-90 -59 -65 83z"/>
  <path class="fil2" d="M289 456c-7,17 -13,17 -25,29 -9,10 -19,19 -25,31l111 35 -1 -129c-20,11 -41,23 -60,34z"/>
  <path class="fil2" d="M170 585l61 64 62 -19c-7,-29 -48,-77 -60,-108l-63 63z"/>
  <path class="fil2" d="M166 308c8,-4 57,-56 64,-66l-166 -52c-19,0 10,23 16,30 11,10 19,19 29,29 19,20 40,39 57,59z"/>
  <path class="fil2" d="M224 653l-57 -61c-13,6 -19,17 -28,28l-70 74c-6,5 -14,8 -11,15 4,9 30,-5 39,-9 35,-13 101,-33 127,-47z"/>
  <path class="fil2" d="M244 242l59 17 116 -198c-18,11 -71,70 -88,89 -20,21 -77,72 -87,92z"/>
  <path class="fil2" d="M239 655c9,14 30,32 42,45l117 118c7,7 5,6 13,10 -7,-17 -18,-33 -28,-50 -10,-17 -18,-31 -28,-48l-58 -95 -58 20z"/>
  <path class="fil1" d="M428 468c16,6 23,12 38,20 13,8 24,13 36,20 11,-5 23,-12 36,-20 8,-4 12,-6 19,-11 10,-6 13,-7 19,-14l-74 -42c-10,3 -31,15 -40,21 -18,11 -31,14 -34,26z"/>
  <path class="fil2" d="M730 367c13,8 9,14 22,23l90 -59c10,-6 24,-12 24,-23l-136 -1 0 60z"/>
  <path class="fil4" d="M502 508l1 85 17 -7 13 -9 45 -27 0 -37 0 -7c0,-14 2,-33 -2,-43 -6,7 -9,8 -19,14 -7,5 -11,7 -19,11 -13,8 -25,15 -36,20z"/>
  <path class="fil4" d="M653 336l1 64c0,21 -1,18 -4,19l5 1 75 -43 0 -10 0 -60 0 -6 0 -5c-13,-1 -28,12 -38,19 -13,7 -25,15 -39,21z"/>
  <path class="fil3" d="M216 429c16,12 35,20 53,32l4 0c0,-22 5,-65 -2,-84l-73 -42c-1,18 1,37 0,56 0,8 -1,19 2,26 2,3 11,10 16,12z"/>
  <path class="fil2" d="M63 445l-1 14 104 34c6,-9 24,-37 23,-43 -1,-3 -22,-38 -25,-43l-101 38z"/>
  <polygon class="fil2" points="350,610 349,557 242,524 300,625 "/>
  <path class="fil2" d="M199 332l94 -55 6 -11 -60 -20c-10,8 -19,19 -33,32 -10,7 -28,25 -32,36 18,26 20,22 25,18z"/>
  <path class="fil2" d="M686 445l63 42c10,-9 26,-32 33,-44 -8,-10 -24,-35 -33,-42 -13,9 -55,34 -63,44z"/>
  <path class="fil2" d="M757 397c3,7 21,30 29,39 8,-4 16,-17 21,-24l43 -55c7,-10 16,-16 16,-33 -9,3 -101,65 -109,73z"/>
  <path class="fil2" d="M756 492c18,12 35,24 54,36 15,10 39,28 55,36 2,-18 -19,-38 -35,-59 -14,-18 -28,-37 -42,-55 -8,10 -27,30 -32,42z"/>
  <path class="fil2" d="M132 548l31 -50c-22,-5 -38,-12 -59,-18 -11,-4 -54,-22 -45,-4 2,4 68,69 73,72z"/>
  <path class="fil2" d="M136 341c10,-8 20,-18 26,-27 -7,-15 -109,-111 -110,-113 0,6 33,58 39,69 7,12 14,24 22,37 3,5 6,10 10,17l13 17z"/>
  <path class="fil2" d="M59 437c12,3 79,-29 101,-34l-27 -48c-7,8 -78,70 -74,82z"/>
  <polygon class="fil2" points="137,555 164,582 223,519 169,501 "/>
  <path class="fil2" d="M53 699l81 -84c9,-8 19,-20 25,-29 -7,-9 -16,-20 -27,-24 -24,45 -56,91 -79,137z"/>
  <path class="fil2" d="M139 351c9,16 18,37 31,48l26 -11c7,-43 -2,-45 -27,-69 -8,4 -26,23 -30,32z"/>
  <path class="fil2" d="M269 461c-18,-12 -37,-20 -53,-32 -10,5 -14,12 -17,23l32 57c21,-12 28,-31 43,-44l-5 -4z"/>
  <path class="fil2" d="M655 420c4,9 13,15 24,19l66 -43c-5,-8 -6,-14 -15,-19l-75 43z"/>
  <path class="fil2" d="M173 494l53 18 -23 -39c-3,-6 0,-1 -3,-6l-5 -5c0,-1 -1,-1 -1,-2l-21 34z"/>
 </g>
</svg>
