<?xml version="1.0" encoding="UTF-8"?>
<!DOCTYPE svg PUBLIC "-//W3C//DTD SVG 1.1//EN" "http://www.w3.org/Graphics/SVG/1.1/DTD/svg11.dtd">
<!-- Creator: CorelDRAW X8 -->
<svg xmlns="http://www.w3.org/2000/svg" xml:space="preserve" width="48.6427mm" height="48.7773mm" version="1.1" style="shape-rendering:geometricPrecision; text-rendering:geometricPrecision; image-rendering:optimizeQuality; fill-rule:evenodd; clip-rule:evenodd"
viewBox="0 0 1729 1733"
 xmlns:xlink="http://www.w3.org/1999/xlink">
 <defs>
  <style type="text/css">
   <![CDATA[
    .fil2 {fill:#336C9C}
    .fil0 {fill:#407DAE}
    .fil3 {fill:#FFD742}
    .fil1 {fill:#FFE263}
    .fil4 {fill:white}
   ]]>
  </style>
 </defs>
 <g id="Layer_x0020_1">
  <metadata id="CorelCorpID_0Corel-Layer"/>
  <g id="_489354953984">
   <path class="fil0" d="M637 847c2,-3 5,-6 7,-9l594 -693c9,-39 25,1 -14,-48 -108,-136 -647,-123 -748,1 -52,64 -40,185 -40,298l414 0 0 50c-172,0 -343,1 -514,0 -103,-1 -156,3 -216,48 -43,32 -83,108 -97,166 -41,169 -44,516 133,605 60,31 156,21 242,21 0,-119 -11,-224 33,-306 36,-64 112,-133 206,-133z"/>
   <path class="fil1" d="M499 1612c24,1 2,6 29,-1 38,-8 25,-14 82,-51l156 -107c2,-2 5,-4 7,-5 3,-2 6,-4 8,-5l142 -96 -56 -18c-3,-1 -8,-3 -11,-6l7 -37 37 -12c12,-2 36,-3 49,-3 137,-5 42,16 170,-67l169 -119c16,-13 22,-19 43,-33l179 -121c2,-2 5,-4 7,-6l197 -130c0,-105 -39,-228 -85,-289 -62,-82 -178,-60 -316,-60 0,148 40,299 -125,401 -232,144 -754,-151 -753,301 1,68 -5,341 11,391 30,96 52,73 53,73z"/>
   <path class="fil2" d="M637 847c117,0 234,0 351,0 126,1 195,-18 249,-89 63,-82 37,-305 39,-462 1,-96 15,-119 -38,-151l-594 693c-2,3 -5,6 -7,9z"/>
   <path class="fil3" d="M499 1612c25,40 -3,3 20,27l80 48c178,73 501,68 637,-78 58,-62 40,-171 40,-286l-420 0c3,3 8,5 11,6l56 18 -142 96c-2,1 -5,3 -8,5 -2,1 -5,3 -7,5l-156 107c-57,37 -44,43 -82,51 -27,7 -5,2 -29,1z"/>
   <path class="fil3" d="M863 1286c118,0 594,15 671,-5 86,-23 123,-105 151,-188 24,-71 65,-216 29,-298l-197 130c-2,2 -5,4 -7,6l-179 121c-21,14 -27,20 -43,33l-169 119c-128,83 -33,62 -170,67 -13,0 -37,1 -49,3l-37 12z"/>
   <path class="fil4" d="M1060 1584l82 -5c99,-194 -227,-174 -82,5z"/>
   <path class="fil4" d="M667 145c-137,-14 -135,99 -72,130 44,22 81,2 95,-27 25,-50 -2,-66 -23,-103z"/>
  </g>
 </g>
</svg>
