<?xml version="1.0" encoding="UTF-8"?>
<!DOCTYPE svg PUBLIC "-//W3C//DTD SVG 1.1//EN" "http://www.w3.org/Graphics/SVG/1.1/DTD/svg11.dtd">
<!-- Creator: CorelDRAW X8 -->
<svg xmlns="http://www.w3.org/2000/svg" xml:space="preserve" width="63.3892mm" height="63.3892mm" version="1.1" style="shape-rendering:geometricPrecision; text-rendering:geometricPrecision; image-rendering:optimizeQuality; fill-rule:evenodd; clip-rule:evenodd"
viewBox="0 0 6065 6065"
 xmlns:xlink="http://www.w3.org/1999/xlink">
 <defs>
  <style type="text/css">
   <![CDATA[
    .fil4 {fill:#5A4169}
    .fil0 {fill:#60FF60}
    .fil8 {fill:#6C537B}
    .fil5 {fill:#7E5B95}
    .fil2 {fill:#8F63A9}
    .fil7 {fill:#957AA4}
    .fil3 {fill:#A37CB9}
    .fil6 {fill:#AD92BC}
    .fil1 {fill:#C4A9D2}
   ]]>
  </style>
 </defs>
 <g id="Layer_x0020_1">
  <metadata id="CorelCorpID_0Corel-Layer"/>
  <g id="_489231146944">
   <path class="fil0" d="M494 1891c-32,91 -69,178 -100,279 -31,100 -39,229 -86,312 -2,95 -13,176 -20,267 -3,37 -8,107 -6,142l34 122c-17,-139 49,-481 98,-591 42,170 153,218 221,355 58,117 8,414 -1,567 -111,-58 -184,-182 -239,-225 42,134 137,242 227,309 7,219 -33,247 83,416 109,161 95,203 76,426 -159,-107 -273,-262 -347,-489 -56,-169 -147,-541 -119,-723 -33,45 -14,-8 -28,70 -5,28 -5,64 -4,93 1,64 8,123 7,187 63,240 70,556 202,747 135,418 580,911 852,1110 372,273 797,488 1383,558 605,73 1182,-79 1620,-314 192,-103 447,-275 567,-405 78,-85 169,-154 245,-253 69,-89 143,-206 223,-281 22,-96 84,-160 133,-261 50,-102 93,-211 128,-329 79,-86 128,-500 142,-660 4,-98 17,-185 -25,-262l-61 497c-64,32 -101,31 -142,60l-309 307c-186,204 -242,207 -207,555 -112,112 -496,285 -684,342 12,-130 12,-595 59,-665 138,-211 1044,-470 1228,-990l-421 377c-121,87 -346,227 -520,275l-19 -227c-116,-32 -107,24 -232,-9 -330,-90 -374,-319 -604,-223 -230,68 -423,38 -539,212 -106,160 -175,346 -138,573 -377,21 -924,-8 -1236,-154 -145,-68 -195,-9 -555,-157 -153,-62 -360,-167 -453,-254 25,-119 51,-220 77,-345 18,-87 7,-100 84,-132 245,-102 271,441 502,595 62,-179 -82,-412 -122,-585l-19 -67c805,282 1613,404 2509,205 436,-97 397,-200 494,284 74,-38 202,-164 274,-226 147,-126 129,-125 135,-388 101,-50 177,-102 269,-159 182,249 217,456 248,500 178,-120 26,-427 165,-603 130,18 225,227 205,357 25,-31 14,-3 30,-55 9,-32 9,-32 12,-66 3,-39 -3,-107 -5,-149 -36,-348 -93,-544 -204,-843 -293,-579 -481,-819 -943,-1160 -1293,-954 -3313,-592 -4144,1151z"/>
   <path class="fil1" d="M213 1901l281 -10c831,-1743 2851,-2105 4144,-1151 462,341 650,581 943,1160l270 1c-87,-418 -657,-1051 -1025,-1326 -214,-160 -521,-321 -778,-407 -303,-101 -607,-156 -906,-168l-246 0c-593,24 -1158,220 -1641,568 -47,35 -107,83 -158,126 -232,197 -236,191 -444,456 -264,338 -281,408 -440,751z"/>
   <path class="fil2" d="M1468 3110c43,50 122,69 228,106 83,29 188,58 278,79 525,125 1012,168 1545,99 54,-7 98,-5 153,-10 66,-7 94,-19 176,-27 230,-96 274,133 604,223 125,33 116,-23 232,9l19 227c174,-48 399,-188 520,-275l421 -377c-184,520 -1090,779 -1228,990 -47,70 -47,535 -59,665 188,-57 572,-230 684,-342 -35,-348 21,-351 207,-555l309 -307c41,-29 78,-28 142,-60l61 -497 -12 -45c20,-130 -75,-339 -205,-357 -139,176 13,483 -165,603 -31,-44 -66,-251 -248,-500 -92,57 -168,109 -269,159 -6,263 12,262 -135,388 -72,62 -200,188 -274,226 -97,-484 -58,-381 -494,-284 -896,199 -1704,77 -2509,-205l19 67z"/>
   <path class="fil3" d="M3848 3357c-82,8 -110,20 -176,27 -55,5 -99,3 -153,10 -533,69 -1020,26 -1545,-99 -90,-21 -195,-50 -278,-79 -106,-37 -185,-56 -228,-106 40,173 184,406 122,585 -231,-154 -257,-697 -502,-595 -77,32 -66,45 -84,132 -26,125 -52,226 -77,345 93,87 300,192 453,254 360,148 410,89 555,157 312,146 859,175 1236,154 -37,-227 32,-413 138,-573 116,-174 309,-144 539,-212z"/>
   <path class="fil4" d="M261 4244c12,139 292,561 375,663 513,628 1164,1036 2047,1152 16,2 33,4 50,6l539 0c141,-13 276,-33 394,-54 118,-22 285,-75 406,-115 140,-47 240,-105 374,-171 414,-205 911,-634 1121,-1019l-223 0c47,-78 44,-30 38,-136 -80,75 -154,192 -223,281 -76,99 -167,168 -245,253 -120,130 -375,302 -567,405 -438,235 -1015,387 -1620,314 -586,-70 -1011,-285 -1383,-558 -272,-199 -717,-692 -852,-1110 -3,6 -7,14 -9,19l-36 70 -186 0z"/>
   <path class="fil5" d="M3814 5096c-632,55 -1058,119 -1698,-34 -131,-31 -236,-95 -318,5 -82,101 0,240 61,322 124,163 461,232 675,273 575,113 1109,21 1593,-184 307,-130 615,-351 840,-582 82,-85 166,-138 99,-316 -99,54 -207,135 -331,201 -98,52 -312,118 -380,166 -81,55 -89,230 -221,325 -195,138 -245,-54 -320,-176z"/>
   <path class="fil5" d="M1689 978c120,-148 225,-223 405,-295 100,-41 438,-180 538,-86 544,-155 985,24 841,244 -88,136 -548,191 -785,95 -102,-41 -118,-83 -183,-138l7 126c253,171 474,175 780,105 163,-38 163,56 226,119 3,3 9,8 12,12 67,63 99,76 114,162 9,49 8,45 8,108 360,-64 678,-176 793,-454 14,209 -235,360 -407,432 -221,92 -424,123 -688,170l-10 80c125,-10 232,-28 338,-49l259 -68c46,-7 40,-7 66,46l48 95c121,218 -48,223 91,283 140,-117 -42,-261 285,-380 44,-16 48,-14 99,-25 8,-1 34,-6 42,-7 187,-45 -5,-254 239,-442l47 -42c5,-3 11,-10 16,-16 -153,-76 -292,-247 -489,-324 33,66 65,106 69,204 -127,-235 -266,-305 -558,-394 -662,-204 -2177,-110 -2203,439z"/>
   <path class="fil5" d="M2050 4928c294,35 520,87 840,102 335,15 590,-39 900,-56 -32,-179 -41,-368 -72,-543 -45,-259 -324,-155 -393,-157 -207,-6 -416,-3 -625,-12 -197,-8 -383,-55 -571,-73 33,127 63,261 58,408 -8,183 -68,236 -137,331z"/>
   <path class="fil6" d="M2061 3105c47,-5 84,0 139,-9 10,-2 73,-20 81,-23 90,-42 -1,-43 158,-72 58,-11 83,-17 143,-40 48,-116 -46,2 31,-88 57,-67 20,6 75,-62l42 -82c24,-34 127,1 -4,-29l-15 -90c-3,-104 36,-99 48,-204 -144,-32 -328,-41 -480,-66 -221,-35 -111,108 -448,-24 -353,-138 -555,252 -433,574 135,94 477,178 663,215z"/>
   <path class="fil3" d="M1689 978c90,328 809,508 940,444 218,-108 319,-227 465,-86 134,130 184,191 558,94 0,-63 1,-59 -8,-108 -15,-86 -47,-99 -114,-162 -3,-4 -9,-9 -12,-12 -63,-63 -63,-157 -226,-119 -306,70 -527,66 -780,-105l-7 -126c30,-124 40,-136 127,-201 -100,-94 -438,45 -538,86 -180,72 -285,147 -405,295z"/>
   <path class="fil6" d="M2711 2610l15 90c131,30 28,-5 4,29l-42 82c-55,68 -18,-5 -75,62 -77,90 17,-28 -31,88 -60,23 -85,29 -143,40 -159,29 -68,30 -158,72 -8,3 -71,21 -81,23 -55,9 -92,4 -139,9 235,111 1119,110 1413,82 -107,-77 -104,-264 -80,-433 29,-203 69,-236 154,-377 -66,4 -472,23 -505,33 -108,31 -118,201 -332,200z"/>
   <path class="fil6" d="M1487 1483c37,72 16,45 83,99 156,123 310,106 410,147 -84,136 -288,145 -347,312 145,50 161,43 290,-47 85,-59 177,-154 295,-136 76,94 60,215 18,335l515 77c-10,-216 -98,-471 -189,-573 -5,-5 -11,-13 -15,-16l-46 -38c-55,-31 13,-5 -65,-17 -227,-34 -207,-36 -430,-114 -58,-20 -237,-115 -247,-117 -179,-33 -170,50 -272,88z"/>
   <path class="fil3" d="M3340 1658c31,252 -135,433 -208,607 670,9 536,-55 778,-202 74,-45 175,-63 232,-98 -139,-60 30,-65 -91,-283l-48 -95c-26,-53 -20,-53 -66,-46l-259 68c-106,21 -213,39 -338,49z"/>
   <path class="fil7" d="M316 3013l-1 45c-28,182 63,554 119,723 74,227 188,382 347,489 19,-223 33,-265 -76,-426 -116,-169 -76,-197 -83,-416 -90,-67 -185,-175 -227,-309 55,43 128,167 239,225 9,-153 59,-450 1,-567 -68,-137 -179,-185 -221,-355 -49,110 -115,452 -98,591z"/>
   <path class="fil0" d="M2632 597c-87,65 -97,77 -127,201 65,55 81,97 183,138 237,96 697,41 785,-95 144,-220 -297,-399 -841,-244z"/>
   <path class="fil7" d="M24 3437c43,0 103,4 143,2 26,-1 42,-2 66,-8 62,-14 11,8 57,-23 1,-64 -6,-123 -7,-187 -1,-29 -1,-65 4,-93 14,-78 -5,-25 28,-70l1 -45 -34 -122c-2,-35 3,-105 6,-142 7,-91 18,-172 20,-267l-261 -3c-17,154 -45,240 -47,421l0 342c3,88 17,114 24,195z"/>
   <path class="fil6" d="M5785 2743c16,25 6,5 26,49 21,45 -1,4 17,41l237 0 0 0c0,-277 -117,-758 -214,-932l-270 -1c111,299 168,495 204,843z"/>
   <path class="fil7" d="M1487 1483c102,-38 93,-121 272,-88 10,2 189,97 247,117 223,78 203,80 430,114 78,12 10,-14 65,17l46 38c4,3 10,11 15,16l-19 -125c-419,-101 -1090,-207 -956,-780 -52,21 -324,179 -318,285 3,48 59,190 78,229 34,67 79,150 140,177z"/>
   <path class="fil5" d="M24 3437c4,198 149,696 237,807l186 0 36 -70c2,-5 6,-13 9,-19 -132,-191 -139,-507 -202,-747 -46,31 5,9 -57,23 -24,6 -40,7 -66,8 -40,2 -100,-2 -143,-2z"/>
   <path class="fil5" d="M5643 3980c84,67 145,46 256,46 3,-4 7,-18 9,-14 1,3 7,-12 8,-15l41 -125c44,-160 103,-383 108,-546l0 0 -280 -6c-14,160 -63,574 -142,660z"/>
   <path class="fil8" d="M5382 4570c6,106 9,58 -38,136l223 0c84,-72 321,-549 332,-680 -111,0 -172,21 -256,-46 -35,118 -78,227 -128,329 -49,101 -111,165 -133,261z"/>
   <path class="fil6" d="M47 2479l261 3c47,-83 55,-212 86,-312 31,-101 68,-188 100,-279l-281 10c-43,77 -158,462 -166,578z"/>
   <path class="fil5" d="M2656 758c160,160 662,153 832,0 -122,-97 -213,-114 -408,-113 -150,1 -347,17 -424,113z"/>
   <path class="fil7" d="M5748 3013l12 45c42,77 29,164 25,262l280 6 0 -493 -237 0c-18,-37 4,4 -17,-41 -20,-44 -10,-24 -26,-49 2,42 8,110 5,149 -3,34 -3,34 -12,66 -16,52 -5,24 -30,55z"/>
   <path class="fil2" d="M3572 3147c5,3 14,1 17,8 18,41 402,-40 452,-47l-26 -408c-119,42 -68,78 -158,280 -71,156 -141,104 -285,167z"/>
   <path class="fil5" d="M1340 3944c-77,-46 -361,-220 -432,-243 18,260 183,262 432,243z"/>
   <path class="fil5" d="M4898 2572c-3,5 -9,6 -10,14 -2,9 -8,12 -10,15 -25,71 -17,116 -19,197 84,-22 155,-61 206,-121 -36,-52 -91,-115 -167,-105z"/>
  </g>
 </g>
</svg>
