<?xml version="1.0" encoding="UTF-8"?>
<!DOCTYPE svg PUBLIC "-//W3C//DTD SVG 1.1//EN" "http://www.w3.org/Graphics/SVG/1.1/DTD/svg11.dtd">
<!-- Creator: CorelDRAW X8 -->
<svg xmlns="http://www.w3.org/2000/svg" xml:space="preserve" width="47.6174mm" height="56.4835mm" version="1.1" style="shape-rendering:geometricPrecision; text-rendering:geometricPrecision; image-rendering:optimizeQuality; fill-rule:evenodd; clip-rule:evenodd"
viewBox="0 0 3831 4545"
 xmlns:xlink="http://www.w3.org/1999/xlink">
 <defs>
  <style type="text/css">
   <![CDATA[
    .fil0 {fill:black}
    .fil3 {fill:#3D3D3D}
    .fil2 {fill:#48E3E5}
    .fil1 {fill:white}
   ]]>
  </style>
 </defs>
 <g id="Layer_x0020_1">
  <metadata id="CorelCorpID_0Corel-Layer"/>
  <path class="fil0" d="M3785 864c-91,-169 -261,-286 -397,-417 -120,-115 -315,-338 -444,-397 -206,-77 -2486,-16 -2922,-28l2 4501 3766 -2 -5 -3657z"/>
  <polygon class="fil1" points="172,4373 3550,4373 3661,4371 3661,973 2830,998 2827,185 2727,170 172,172 "/>
  <path class="fil0" d="M572 1449c0,443 -43,410 148,644l395 514c120,147 128,116 132,354 -269,25 -165,-23 -342,129 -97,85 -211,119 -212,316 -2,260 14,266 135,397 50,54 164,225 281,225l1419 0c156,0 624,-489 624,-620 0,-777 44,-428 -748,-1322 -90,-102 -218,-178 -223,-356 185,150 146,97 659,97 115,0 240,-82 311,-119 6,-454 58,-278 -467,-757 -156,-142 -75,-129 -354,-126 -358,4 -1230,-65 -1358,62 -120,119 -400,384 -400,562z"/>
  <path class="fil2" d="M736 1449c1,521 -23,349 372,881 470,634 208,191 315,643 141,-1 860,-10 966,37 14,6 95,55 105,64 58,50 44,-18 53,101 -124,83 -157,-2 -266,72 -107,73 -117,162 -119,255l369 354c151,-80 197,-149 303,-255 172,-171 157,-100 158,-421 0,-322 -71,-323 -310,-550 -119,-112 -650,-674 -665,-784 -66,-494 99,-473 325,-855l-1120 2c-214,0 -208,121 -386,299 -68,68 -100,49 -100,157z"/>
  <path class="fil2" d="M855 3345c27,408 78,274 249,519l1185 -9c-1,-5 -264,-282 -265,-282 -107,-195 61,-321 109,-430 -180,0 -962,-54 -1084,33 -7,6 -72,73 -86,86 -38,34 -72,55 -108,83z"/>
  <path class="fil3" d="M3785 864l5 3657 -3766 2 -2 -4501c436,12 2716,-49 2922,28 -32,-51 56,-34 -75,-50l-2863 0 -6 4539 3824 6 7 -3581c-14,-153 5,-65 -46,-100z"/>
  <path class="fil2" d="M2214 1478c93,132 87,187 312,188 138,0 411,39 458,-82 62,-157 -208,-336 -372,-475l-84 -59c-82,75 -266,333 -314,428z"/>
  <path class="fil1" d="M2997 826l501 -1c-53,-87 -388,-438 -495,-494l-6 495z"/>
  <path class="fil0" d="M1054 1194c31,99 -84,67 367,67 432,0 359,40 362,-87 -185,1 -595,-42 -729,20z"/>
  <path class="fil0" d="M889 1762c108,67 570,25 740,25 -18,-121 94,-83 -350,-83 -76,0 -152,-1 -228,-2 -213,-2 -118,1 -162,60z"/>
  <path class="fil0" d="M1053 2074c86,47 585,22 733,23 -8,-118 48,-82 -106,-90l-459 2c-228,-3 -121,-3 -168,65z"/>
  <path class="fil0" d="M893 1506c63,30 666,20 670,19 72,-16 30,7 66,-47 -107,-82 -435,-41 -579,-42 -224,-1 -120,6 -157,70z"/>
  <path class="fil0" d="M1548 2642c69,44 666,47 737,0 -26,-96 -2,-60 -353,-59 -438,0 -325,-24 -384,59z"/>
  <path class="fil0" d="M1262 2358l613 16c146,0 79,16 122,-45 -39,-32 4,-44 -178,-43l-400 0c-227,-2 -121,6 -157,72z"/>
 </g>
</svg>
